# xmcd
#
# Track frame offsets:
#	150
#	13837
#	32774
#	46011
#	60298
#	80248
#	95398
#	113923
#	129823
#	146360
#	161285
#	186410
#	202910
#	218810
#
# Disc length: 3106 seconds
#
# Revision: 1
# Processed by: cddbd v1.5.2PL0 Copyright (c) Steve Scherf et al.
# Submitted via: audiograbber 1.83.01
#
DISCID=b20c200e
DTITLE=diverse - Ohrwürmer 2
DYEAR=2007
DGENRE=Theken Mix
TTITLE0=Joe and die Party Singers - Country Roads
TTITLE1=Ulli Bastian - Wir sind alle über 40
TTITLE2=Michael und Freunde - Gute Freunde kann niemand trennen
TTITLE3=Die Balla Männer - Viva Colonia
TTITLE4=Vambo Combo - Superjeilezick
TTITLE5=Die Party Geier - Hände zum Himmel
TTITLE6=Tonia feat. Holiday - 20 Zentimeter
TTITLE7=Playa Party Projekt - 10 nackte Frisösen
TTITLE8=Christian König - Ladioo
TTITLE9=Die Balla Männer - Anton aus Tirol
TTITLE10=Die Inselfeger - Das Schunkelwalzer Medley
TTITLE11=Wilde Buben - Schneewalzer
TTITLE12=Die Korntaler - Sierra Madre
TTITLE13=Michael Schön - Que sera
EXTD=
EXTT0=
EXTT1=
EXTT2=
EXTT3=
EXTT4=
EXTT5=
EXTT6=
EXTT7=
EXTT8=
EXTT9=
EXTT10=
EXTT11=
EXTT12=
EXTT13=
PLAYORDER=
